<?xml version="1.0" encoding="UTF-8"?>
<svg width="752pt" height="752pt" version="1.1" viewBox="0 0 752 752" xmlns="http://www.w3.org/2000/svg">
 <g>
  <path d="m384.05 388.79 178.54-103.71 0.47266 200.8-179.02 103.24z"/>
  <path d="m560.22 288.86 0.47656 195.59-174.28 100.87v-195.12l173.8-101.34m4.7383-8.0508-183.28 106.55v206.01l183.75-106.08z"/>
  <path d="m367.95 366.05-169.54-103.71 176.64-101.82 181.38 105.61-176.18 102.3-4.7344 2.3672z"/>
  <path d="m375.05 163.36 176.64 102.77-172.38 99.926-3.3164 2.3711-6.6289-3.7891-166.23-102.29 171.91-98.98m0-5.6836-180.91 104.66 172.86 106.08 8.9961 5.2109 5.6836-3.3164 179.49-104.19z"/>
  <path d="m189.41 484.45-0.47266-205.06 175.7 107.5v199.38z"/>
  <path d="m191.3 283.65 170.96 104.66v194.17l-170.49-99.449-0.47266-199.38m-4.7344-8.5234 0.47266 210.74 179.49 104.66v-205.06z"/>
 </g>
</svg>
